<svg width="48" height="48" viewBox="0 0 48 48" fill="none" xmlns="http://www.w3.org/2000/svg">
<path fill-rule="evenodd" clip-rule="evenodd" d="M48 0H0V48H48V0ZM13.5 16.625L12.8875 14H40.625V17.0625C40.625 17.0625 37.3875 17.4125 34.7625 19.8625C32.05 22.3125 31.175 27.65 31.175 27.65H30.125L29.5125 29.3125H30.3875L31.875 34.125H17.2625L18.75 29.3125H19.625L19.0125 27.65H17.9625L16.0375 22.4875C14.375 22.4 12.7125 22.3125 11.05 21.9625C8.68746 21.525 5.80004 20.7375 4.13754 18.8125C3.86143 18.5364 3.63977 18.1514 3.42961 17.7863C3.37337 17.6886 3.31796 17.5924 3.26254 17.5C3.17504 17.4125 3 16.625 3 16.625H13.5ZM26.4703 27.6518C26.8333 27.5499 27.2223 27.4407 27.5875 27.2125C28.2875 26.775 28.9 25.55 28.55 24.5C28.1125 23.275 27.5 22.925 27.5 22.925C27.85 23.45 27.9375 24.0625 27.675 24.5875C27.5 25.025 26.8 25.55 26.45 25.025C26.3625 24.85 26.3625 24.5875 26.3625 24.4125C26.3625 24.2376 26.4499 24.0627 26.5374 23.8878L26.5375 23.8875C26.5813 23.8 26.6469 23.7125 26.7125 23.625C26.7782 23.5375 26.8438 23.45 26.8875 23.3625C26.9038 23.33 26.9231 23.2944 26.9438 23.2563C27.0341 23.0899 27.15 22.8762 27.15 22.6625C27.2375 22.4 27.15 21.9625 26.975 21.7875C27.0625 22.05 26.8875 22.4 26.625 22.4875H26.5375H26.3625C26.1875 22.4875 26.0125 22.3125 25.925 22.1375C25.8375 21.875 25.925 21.525 26.1 21.35C26.275 21.175 26.45 21.0875 26.7125 21.175C26.5812 20.65 26.3023 20.2726 26.0234 19.8953C25.9304 19.7695 25.8375 19.6437 25.75 19.5125C25.225 18.8125 25.05 18.025 25.3125 17.325V17.2375C25.575 16.5375 26.3625 16.1 27.0625 16.0125C25.8375 15.925 24.7875 16.625 24.7875 16.625C23.3258 17.702 24.0286 19.1173 24.2791 19.6218C24.3136 19.6911 24.3395 19.7433 24.35 19.775C24.525 19.95 24.525 20.125 24 20.125C23.2125 20.2125 23.0375 19.425 23.0375 19.425C22.5125 20.0375 22.6875 21 23.475 21.7C24 22.1375 24 22.75 23.825 23.3625C23.7375 23.625 23.5625 23.975 23.3 24.15C22.6875 24.5 21.9875 24.2375 21.6375 23.7125C21.025 22.8375 21.6375 21.9625 21.6375 21.9625C20.7625 22.3125 20.325 22.8375 20.15 23.3625C20.0625 23.45 20.0625 23.5375 20.0625 23.6249V23.625V23.8V23.8875C19.975 24.4125 20.0625 25.4625 20.9375 26.25C21.9505 27.128 22.755 27.2762 23.3108 27.3786C23.4751 27.4088 23.6177 27.4351 23.7375 27.475C24.2625 27.65 24.7 27.9125 25.05 28.7C25.05 28.7 25.225 28.175 25.575 28C25.8262 27.8326 26.1373 27.7452 26.4703 27.6518Z" fill="#F16436"/>
</svg>
